<svg width="43" height="43" viewBox="0 0 43 43" fill="none" xmlns="http://www.w3.org/2000/svg">
<g filter="url(#filter0_d_54_603)">
<circle cx="22.5" cy="17.5" r="17.5" fill="white"/>
<circle cx="22.5" cy="17.5" r="17" stroke="#E5E5E5"/>
</g>
<path d="M26.046 18.5464C26.0098 18.5276 24.656 17.8046 24.4154 17.7107C24.3172 17.6725 24.212 17.6351 24.1001 17.6351C23.9173 17.6351 23.7637 17.7339 23.6441 17.928C23.5089 18.146 23.0995 18.665 22.973 18.82C22.9565 18.8405 22.9339 18.8649 22.9204 18.8649C22.9083 18.8649 22.6988 18.7713 22.6354 18.7415C21.1831 18.0573 20.0808 16.4121 19.9296 16.1347C19.908 16.0948 19.9071 16.0767 19.9069 16.0767C19.9122 16.0556 19.9611 16.0025 19.9863 15.9751C20.06 15.896 20.1399 15.7917 20.2172 15.6908C20.2538 15.643 20.2905 15.5951 20.3265 15.55C20.4386 15.4085 20.4885 15.2987 20.5464 15.1714L20.5767 15.1053C20.7181 14.8008 20.5974 14.5438 20.5583 14.4609C20.5263 14.3914 19.9547 12.8952 19.8939 12.738C19.7478 12.3587 19.5546 12.1821 19.2863 12.1821C19.2614 12.1821 19.2863 12.1821 19.1819 12.1869C19.0547 12.1927 18.3622 12.2916 18.0561 12.5009C17.7314 12.7229 17.1821 13.4305 17.1821 14.6749C17.1821 15.7949 17.8375 16.8524 18.1189 17.2546C18.1259 17.2648 18.1387 17.2854 18.1574 17.3149C19.235 19.0216 20.5784 20.2865 21.9402 20.8765C23.2513 21.4444 23.8721 21.5101 24.225 21.5101C24.2251 21.5101 24.2251 21.5101 24.2251 21.5101C24.3734 21.5101 24.4921 21.4974 24.5969 21.4863L24.6633 21.4794C25.1162 21.4359 26.1115 20.8765 26.3379 20.1942C26.5163 19.6568 26.5633 19.0696 26.4447 18.8565C26.3634 18.7116 26.2233 18.6387 26.046 18.5464Z" fill="#397A11"/>
<path d="M22.021 7C16.6877 7 12.3487 11.3064 12.3487 16.5996C12.3487 18.3116 12.8069 19.9874 13.6748 21.4541L12.0135 26.3545C11.9826 26.4458 12.0056 26.5469 12.0732 26.6157C12.122 26.6655 12.1881 26.6923 12.2557 26.6923C12.2816 26.6923 12.3077 26.6884 12.3332 26.6803L17.4429 25.0566C18.8412 25.8037 20.4216 26.198 22.021 26.198C27.3538 26.1981 31.6923 21.8922 31.6923 16.5996C31.6923 11.3064 27.3538 7 22.021 7ZM22.021 24.1984C20.516 24.1984 19.0583 23.7638 17.8053 22.9416C17.7631 22.9139 17.7142 22.8998 17.665 22.8998C17.639 22.8998 17.6129 22.9037 17.5875 22.9118L15.0278 23.7254L15.8541 21.2876C15.8808 21.2087 15.8675 21.1217 15.8183 21.0544C14.8641 19.7506 14.3597 18.2102 14.3597 16.5996C14.3597 12.409 17.7965 8.99966 22.0209 8.99966C26.2448 8.99966 29.6812 12.409 29.6812 16.5996C29.6813 20.7896 26.2449 24.1984 22.021 24.1984Z" fill="#397A11"/>
<defs>
<filter id="filter0_d_54_603" x="0" y="0" width="43" height="43" filterUnits="userSpaceOnUse" color-interpolation-filters="sRGB">
<feFlood flood-opacity="0" result="BackgroundImageFix"/>
<feColorMatrix in="SourceAlpha" type="matrix" values="0 0 0 0 0 0 0 0 0 0 0 0 0 0 0 0 0 0 127 0" result="hardAlpha"/>
<feOffset dx="-1" dy="4"/>
<feGaussianBlur stdDeviation="2"/>
<feComposite in2="hardAlpha" operator="out"/>
<feColorMatrix type="matrix" values="0 0 0 0 0 0 0 0 0 0 0 0 0 0 0 0 0 0 0.1 0"/>
<feBlend mode="normal" in2="BackgroundImageFix" result="effect1_dropShadow_54_603"/>
<feBlend mode="normal" in="SourceGraphic" in2="effect1_dropShadow_54_603" result="shape"/>
</filter>
</defs>
</svg>
