<svg width="20" height="20" viewBox="0 0 20 20" fill="none" xmlns="http://www.w3.org/2000/svg">
<path d="M11.8488 13.1487L11.8502 13.1494C11.8836 13.1655 11.9179 13.1819 11.9527 13.1985C12.0014 13.2217 12.0512 13.2455 12.1011 13.2699L13.3303 12.1301L11.8488 13.1487ZM11.8488 13.1487C11.7022 13.0805 11.5689 13.0184 11.4561 12.9534C10.2679 12.2513 9.18666 11.3357 8.14801 10.1487C7.66883 9.58527 7.34219 9.10993 7.10282 8.63444C7.38272 8.39318 7.64571 8.14493 7.89995 7.90494C7.92899 7.87754 7.95791 7.85024 7.98673 7.82307C8.04373 7.77005 8.10067 7.71613 8.15723 7.66258L8.15724 7.66257L8.15732 7.6625C8.21405 7.60878 8.27041 7.55542 8.32671 7.50305C8.76788 7.09268 8.99653 6.61357 8.99653 6.12626C8.99653 5.63895 8.76788 5.15984 8.32671 4.74947L7.22098 3.72093C7.0952 3.60393 6.96679 3.48448 6.84663 3.36525L6.84664 3.36524M11.8488 13.1487L6.84664 3.36524M6.84664 3.36524L6.84549 3.36414M6.84664 3.36524L6.84549 3.36414M6.84549 3.36414C6.60262 3.13069 6.34622 2.88836 6.08118 2.66072C5.67178 2.28434 5.17877 2.08164 4.65789 2.08164C4.13669 2.08164 3.63559 2.28457 3.21418 2.66088L3.21416 2.66087M6.84549 3.36414L3.21416 2.66087M3.21416 2.66087L3.21268 2.66225M3.21416 2.66087L3.21268 2.66225M3.21268 2.66225L3.20458 2.66978L3.20425 2.67008M3.21268 2.66225L3.20425 2.67008M3.20425 2.67008L1.82747 3.96205C1.82742 3.9621 1.82737 3.96215 1.82732 3.9622C1.29179 4.4604 0.984326 5.07047 0.917115 5.77772H0.917113M3.20425 2.67008L0.917113 5.77772M0.917113 5.77772L0.917054 5.77838M0.917113 5.77772L0.917054 5.77838M0.917054 5.77838C0.817688 6.90294 1.17367 7.94602 1.44221 8.61972C2.10354 10.2791 3.09076 11.8148 4.55904 13.4567L4.55927 13.457M0.917054 5.77838L4.55927 13.457M4.55927 13.457C6.34265 15.4378 8.48852 17.002 10.9394 18.1041L10.9401 18.1044M4.55927 13.457L10.9401 18.1044M10.9401 18.1044C11.8741 18.5161 13.131 19.0083 14.5387 19.0923L14.5402 19.0923M10.9401 18.1044L14.5402 19.0923M14.5402 19.0923C14.625 19.0961 14.7163 19.1 14.7998 19.1C15.7599 19.1 16.572 18.7781 17.2079 18.136L17.2181 18.1257M14.5402 19.0923L17.2181 18.1257M17.2181 18.1257L17.2194 18.1234M17.2181 18.1257L17.2194 18.1234M17.2194 18.1234C17.2206 18.1221 17.222 18.1206 17.2234 18.1191C17.2261 18.1162 17.2292 18.1124 17.2325 18.1079C17.4225 17.8946 17.6395 17.6994 17.8732 17.4892C17.8915 17.4727 17.9099 17.4562 17.9284 17.4395C18.1031 17.2846 18.2824 17.1215 18.4581 16.9506C18.8744 16.5476 19.1 16.0709 19.1 15.5753C19.1 15.0752 18.8697 14.6016 18.4442 14.2096C18.4441 14.2096 18.4441 14.2095 18.444 14.2094L16.2222 12.1352C16.222 12.135 16.2218 12.1348 16.2216 12.1346C15.8122 11.7384 15.3143 11.5231 14.7836 11.5231C14.2572 11.5231 13.7557 11.7345 13.3304 12.13L17.2194 18.1234ZM17.1345 16.4755C17.104 16.503 17.0731 16.531 17.0417 16.5595C16.7786 16.793 16.5088 17.04 16.2546 17.3182C15.8662 17.7038 15.4107 17.8865 14.8039 17.8865C14.7425 17.8865 14.6809 17.8865 14.6238 17.8829L14.6235 17.8829C13.4394 17.8124 12.3352 17.3818 11.4992 17.0098C9.21938 15.9832 7.21784 14.5259 5.55451 12.679C4.17938 11.1373 3.26311 9.71547 2.6568 8.19158L2.65668 8.19129C2.28356 7.26202 2.15097 6.54752 2.20985 5.87903C2.24805 5.46373 2.4185 5.12087 2.7373 4.82433L4.11728 3.54068C4.30332 3.37858 4.49107 3.29888 4.66599 3.29888C4.88373 3.29888 5.06671 3.42187 5.18922 3.53583L5.20137 3.54713L5.20133 3.54717L5.20388 3.54938C5.44897 3.76241 5.68239 3.98325 5.92926 4.22041L5.92928 4.22043C5.99239 4.28104 6.05648 4.34159 6.12073 4.4023L6.12214 4.40363C6.18602 4.46399 6.25008 4.52451 6.31409 4.58592L6.31408 4.58592L6.31521 4.58697L7.42094 5.61551C7.62641 5.80663 7.71105 5.97413 7.71105 6.12626C7.71105 6.27839 7.62641 6.44589 7.42094 6.63701C7.38071 6.67443 7.34141 6.71142 7.30251 6.74802C7.2261 6.81993 7.15124 6.89038 7.0739 6.95984L7.07387 6.95981L7.07176 6.96182C6.73194 7.28544 6.40983 7.58502 6.06005 7.87672L6.05995 7.87661L6.05669 7.87965C6.05665 7.87967 6.05661 7.8797 6.05657 7.87974L6.05439 7.88142L6.05011 7.88475C6.046 7.88802 6.03736 7.89499 6.02851 7.90591C5.84393 8.08021 5.76247 8.25883 5.74134 8.4286C5.72031 8.59755 5.76045 8.74756 5.79854 8.85974L5.79852 8.85974L5.79909 8.86132L5.80517 8.87828L5.81124 8.89523L5.81099 8.89532L5.81398 8.90206C6.10657 9.5614 6.5177 10.1798 7.13731 10.9116L7.13676 10.9121L7.14552 10.9202L7.14576 10.9204C8.26875 12.2065 9.45438 13.2109 10.7635 13.9811C10.9338 14.0815 11.1076 14.1624 11.2685 14.2372L11.2704 14.238C11.4172 14.3063 11.5506 14.3685 11.6635 14.4336L11.6633 14.434L11.6713 14.4377C11.6746 14.4392 11.6787 14.4415 11.6876 14.4467C11.6949 14.4509 11.707 14.4581 11.7199 14.4641C11.8693 14.5335 12.0132 14.5676 12.1631 14.5676C12.5386 14.5676 12.7735 14.3491 12.8461 14.2816L12.8468 14.2809L14.232 12.9924C14.3644 12.8693 14.5592 12.7366 14.7755 12.7366C14.9878 12.7366 15.1702 12.862 15.2874 12.9816L15.2873 12.9817L15.2907 12.9848L15.2988 12.9924L17.5305 15.0683L17.5308 15.0686C17.728 15.2502 17.8116 15.4206 17.812 15.5793C17.8124 15.7359 17.7319 15.9072 17.5426 16.0932C17.536 16.0979 17.529 16.104 17.5224 16.1119C17.5214 16.1132 17.5201 16.1149 17.5187 16.1168C17.3952 16.2397 17.2692 16.3537 17.1345 16.4755Z" fill="#CCCCCC" stroke="#CCCCCC" stroke-width="0.2"/>
<path d="M15.3026 10.9526L15.3026 10.9527L15.3066 10.952C15.6521 10.8884 15.8606 10.5265 15.8092 10.1667L15.8091 10.166C15.6012 8.78098 15.0236 7.51667 14.1403 6.514C13.2568 5.51121 12.1397 4.85208 10.9121 4.61469L10.9121 4.61469L10.9112 4.61452C10.5639 4.55059 10.2579 4.81289 10.2016 5.17173C10.1459 5.52677 10.3496 5.89426 10.6961 5.95824C11.6676 6.1435 12.5524 6.66573 13.2608 7.46986C13.9691 8.27393 14.4287 9.28213 14.597 10.394C14.6449 10.7197 14.8971 10.9622 15.2011 10.9622C15.2361 10.9622 15.2675 10.9577 15.2935 10.9539C15.2966 10.9535 15.2996 10.953 15.3026 10.9526Z" fill="#CCCCCC" stroke="#CCCCCC" stroke-width="0.2"/>
<path d="M17.8569 10.2174C17.9047 10.5431 18.157 10.7857 18.4611 10.7857C18.496 10.7857 18.5274 10.7812 18.5534 10.7774C18.5565 10.7769 18.5595 10.7765 18.5625 10.7761L18.5625 10.7761L18.5653 10.7757C18.9074 10.7171 19.121 10.3549 19.0652 9.99783C18.7243 7.72891 17.782 5.66261 16.3326 4.01745C14.8832 2.3722 13.0596 1.29915 11.0534 0.910776C10.707 0.841021 10.4022 1.11128 10.3463 1.46773L10.3463 1.46773L10.3461 1.46909C10.2945 1.83021 10.5042 2.18561 10.8472 2.25402L10.8472 2.25402L10.8479 2.25415C12.5947 2.59029 14.1901 3.53092 15.4608 4.96902C16.7314 6.41137 17.5594 8.22597 17.8569 10.2174ZM17.8569 10.2174C17.8569 10.2173 17.8568 10.2173 17.8568 10.2173L17.9558 10.2027M17.8569 10.2174C17.8569 10.2174 17.8569 10.2175 17.8569 10.2175L17.9558 10.2027M17.9558 10.2027C17.9976 10.4873 18.2141 10.6857 18.4611 10.6857C18.4884 10.6857 18.5126 10.6822 18.5393 10.6784C18.5423 10.678 18.5454 10.6775 18.5484 10.6771C18.8258 10.6296 19.0157 10.3278 18.9663 10.013C18.6282 7.76196 17.6936 5.71361 16.2576 4.08355C14.8216 2.4535 13.017 1.39267 11.0339 1.00888L17.9558 10.2027Z" fill="#CCCCCC" stroke="#CCCCCC" stroke-width="0.2"/>
</svg>
