<svg width="20" height="20" viewBox="0 0 20 20" fill="none" xmlns="http://www.w3.org/2000/svg">
<path d="M11.8488 13.1488L11.8502 13.1494C11.8836 13.1655 11.9179 13.1819 11.9527 13.1985C12.0014 13.2218 12.0512 13.2456 12.1011 13.2699L13.3303 12.1301L11.8488 13.1488ZM11.8488 13.1488C11.7022 13.0805 11.5689 13.0185 11.4561 12.9534C10.2679 12.2513 9.18666 11.3358 8.14801 10.1488C7.66883 9.58531 7.34219 9.10997 7.10282 8.63449C7.38272 8.39323 7.64571 8.14498 7.89995 7.90499C7.92899 7.87758 7.95791 7.85028 7.98673 7.82311C8.04373 7.77009 8.10067 7.71618 8.15723 7.66262L8.15724 7.66261L8.15732 7.66254C8.21405 7.60883 8.27041 7.55547 8.32671 7.5031C8.76788 7.09272 8.99653 6.61361 8.99653 6.12631C8.99653 5.639 8.76788 5.15989 8.32671 4.74951L7.22098 3.72098C7.0952 3.60398 6.96679 3.48452 6.84663 3.36529L6.84664 3.36528M11.8488 13.1488L6.84664 3.36528M6.84664 3.36528L6.84549 3.36418M6.84664 3.36528L6.84549 3.36418M6.84549 3.36418C6.60262 3.13073 6.34622 2.88841 6.08118 2.66076C5.67178 2.28439 5.17877 2.08169 4.65789 2.08169C4.13669 2.08169 3.63559 2.28462 3.21418 2.66093L3.21416 2.66091M6.84549 3.36418L3.21416 2.66091M3.21416 2.66091L3.21268 2.6623M3.21416 2.66091L3.21268 2.6623M3.21268 2.6623L3.20458 2.66983L3.20425 2.67013M3.21268 2.6623L3.20425 2.67013M3.20425 2.67013L1.82747 3.9621C1.82742 3.96215 1.82737 3.96219 1.82732 3.96224C1.29179 4.46045 0.984326 5.07052 0.917115 5.77777H0.917113M3.20425 2.67013L0.917113 5.77777M0.917113 5.77777L0.917054 5.77842M0.917113 5.77777L0.917054 5.77842M0.917054 5.77842C0.817688 6.90299 1.17367 7.94607 1.44221 8.61977C2.10354 10.2792 3.09076 11.8148 4.55904 13.4568L4.55927 13.457M0.917054 5.77842L4.55927 13.457M4.55927 13.457C6.34265 15.4378 8.48852 17.0021 10.9394 18.1041L10.9401 18.1044M4.55927 13.457L10.9401 18.1044M10.9401 18.1044C11.8741 18.5162 13.131 19.0083 14.5387 19.0923L14.5402 19.0924M10.9401 18.1044L14.5402 19.0924M14.5402 19.0924C14.625 19.0961 14.7163 19.1 14.7998 19.1C15.7599 19.1 16.572 18.7782 17.2079 18.136L17.2181 18.1257M14.5402 19.0924L17.2181 18.1257M17.2181 18.1257L17.2194 18.1234M17.2181 18.1257L17.2194 18.1234M17.2194 18.1234C17.2206 18.1221 17.222 18.1207 17.2234 18.1192C17.2261 18.1162 17.2292 18.1125 17.2325 18.108C17.4225 17.8947 17.6395 17.6994 17.8732 17.4892C17.8915 17.4728 17.9099 17.4562 17.9284 17.4395C18.1031 17.2846 18.2824 17.1216 18.4581 16.9506C18.8744 16.5477 19.1 16.0709 19.1 15.5753C19.1 15.0753 18.8697 14.6017 18.4442 14.2097C18.4441 14.2096 18.4441 14.2095 18.444 14.2095L16.2222 12.1353C16.222 12.1351 16.2218 12.1349 16.2216 12.1347C15.8122 11.7384 15.3143 11.5232 14.7836 11.5232C14.2572 11.5232 13.7557 11.7345 13.3304 12.13L17.2194 18.1234ZM17.1345 16.4756C17.104 16.5031 17.0731 16.531 17.0417 16.5596C16.7786 16.793 16.5088 17.0401 16.2546 17.3183C15.8662 17.7038 15.4107 17.8865 14.8039 17.8865C14.7425 17.8865 14.6809 17.8865 14.6238 17.883L14.6235 17.8829C13.4394 17.8125 12.3352 17.3818 11.4992 17.0099C9.21938 15.9832 7.21784 14.526 5.55451 12.6791C4.17938 11.1373 3.26311 9.71551 2.6568 8.19163L2.65668 8.19133C2.28356 7.26206 2.15097 6.54757 2.20985 5.87908C2.24805 5.46378 2.4185 5.12092 2.7373 4.82437L4.11728 3.54073C4.30332 3.37862 4.49107 3.29892 4.66599 3.29892C4.88373 3.29892 5.06671 3.42191 5.18922 3.53587L5.20137 3.54717L5.20133 3.54722L5.20388 3.54943C5.44897 3.76246 5.68239 3.9833 5.92926 4.22046L5.92928 4.22048C5.99239 4.28108 6.05648 4.34164 6.12073 4.40235L6.12214 4.40368C6.18602 4.46403 6.25008 4.52456 6.31409 4.58596L6.31408 4.58597L6.31521 4.58702L7.42094 5.61556C7.62641 5.80668 7.71105 5.97417 7.71105 6.12631C7.71105 6.27844 7.62641 6.44593 7.42094 6.63705C7.38071 6.67448 7.34141 6.71146 7.30251 6.74807C7.2261 6.81998 7.15124 6.89043 7.0739 6.95988L7.07387 6.95985L7.07176 6.96187C6.73194 7.28549 6.40983 7.58506 6.06005 7.87677L6.05995 7.87665L6.05669 7.87969C6.05665 7.87972 6.05661 7.87975 6.05657 7.87978L6.05439 7.88146L6.05011 7.88479C6.046 7.88807 6.03736 7.89504 6.02851 7.90595C5.84393 8.08025 5.76247 8.25888 5.74134 8.42864C5.72031 8.5976 5.76045 8.74761 5.79854 8.85978L5.79852 8.85979L5.79909 8.86137L5.80517 8.87833L5.81124 8.89528L5.81099 8.89537L5.81398 8.9021C6.10657 9.56145 6.5177 10.1798 7.13731 10.9117L7.13676 10.9121L7.14552 10.9203L7.14576 10.9205C8.26875 12.2066 9.45438 13.211 10.7635 13.9811C10.9338 14.0816 11.1076 14.1624 11.2685 14.2372L11.2704 14.2381C11.4172 14.3064 11.5506 14.3685 11.6635 14.4337L11.6633 14.434L11.6713 14.4378C11.6746 14.4393 11.6787 14.4416 11.6876 14.4467C11.6949 14.451 11.707 14.4581 11.7199 14.4641C11.8693 14.5336 12.0132 14.5676 12.1631 14.5676C12.5386 14.5676 12.7735 14.3491 12.8461 14.2817L12.8468 14.2809L14.232 12.9924C14.3644 12.8693 14.5592 12.7366 14.7755 12.7366C14.9878 12.7366 15.1702 12.8621 15.2874 12.9817L15.2873 12.9817L15.2907 12.9849L15.2988 12.9924L17.5305 15.0683L17.5308 15.0687C17.728 15.2503 17.8116 15.4206 17.812 15.5793C17.8124 15.736 17.7319 15.9073 17.5426 16.0932C17.536 16.0979 17.529 16.104 17.5224 16.112C17.5214 16.1133 17.5201 16.1149 17.5187 16.1169C17.3952 16.2398 17.2692 16.3537 17.1345 16.4756Z" fill="#CCCCCC" stroke="#E5E5E5" stroke-width="0.2"/>
<path d="M15.3026 10.9527L15.3026 10.9528L15.3066 10.952C15.6521 10.8885 15.8606 10.5266 15.8092 10.1668L15.8091 10.1661C15.6012 8.78107 15.0236 7.51677 14.1403 6.51409C13.2568 5.5113 12.1397 4.85217 10.9121 4.61478L10.9121 4.61478L10.9112 4.61462C10.5639 4.55069 10.2579 4.81298 10.2016 5.17182C10.1459 5.52686 10.3496 5.89435 10.6961 5.95833C11.6676 6.14359 12.5524 6.66582 13.2608 7.46995C13.9691 8.27402 14.4287 9.28222 14.597 10.3941C14.6449 10.7198 14.8971 10.9623 15.2011 10.9623C15.2361 10.9623 15.2675 10.9578 15.2935 10.954C15.2966 10.9536 15.2996 10.9531 15.3026 10.9527Z" fill="#CCCCCC" stroke="#CCCCCC" stroke-width="0.2"/>
<path d="M17.8569 10.2174C17.9047 10.5431 18.157 10.7857 18.4611 10.7857C18.496 10.7857 18.5274 10.7812 18.5534 10.7774C18.5565 10.7769 18.5595 10.7765 18.5625 10.7761L18.5625 10.7761L18.5653 10.7757C18.9074 10.7171 19.121 10.3549 19.0652 9.99783C18.7243 7.72891 17.782 5.66261 16.3326 4.01745C14.8832 2.3722 13.0596 1.29915 11.0534 0.910776C10.707 0.841021 10.4022 1.11128 10.3463 1.46773L10.3463 1.46773L10.3461 1.46909C10.2945 1.83021 10.5042 2.18561 10.8472 2.25402L10.8472 2.25402L10.8479 2.25415C12.5947 2.59029 14.1901 3.53092 15.4608 4.96902C16.7314 6.41137 17.5594 8.22597 17.8569 10.2174ZM17.8569 10.2174C17.8569 10.2173 17.8568 10.2173 17.8568 10.2173L17.9558 10.2027M17.8569 10.2174C17.8569 10.2174 17.8569 10.2175 17.8569 10.2175L17.9558 10.2027M17.9558 10.2027C17.9976 10.4873 18.2141 10.6857 18.4611 10.6857C18.4884 10.6857 18.5126 10.6822 18.5393 10.6784C18.5423 10.678 18.5454 10.6775 18.5484 10.6771C18.8258 10.6296 19.0157 10.3278 18.9663 10.013C18.6282 7.76196 17.6936 5.71361 16.2576 4.08355C14.8216 2.4535 13.017 1.39267 11.0339 1.00888L17.9558 10.2027Z" fill="#CCCCCC" stroke="#E5E5E5" stroke-width="0.2"/>
</svg>
